<?xml version="1.0" standalone="no"?>
<!DOCTYPE svg PUBLIC "-//W3C//DTD SVG 20010904//EN"
 "http://www.w3.org/TR/2001/REC-SVG-20010904/DTD/svg10.dtd">
<svg version="1.0" xmlns="http://www.w3.org/2000/svg"
 width="1024.000000pt" height="1024.000000pt" viewBox="0 0 1024.000000 1024.000000"
 preserveAspectRatio="xMidYMid meet">
<metadata>
Created by potrace 1.16, written by Peter Selinger 2001-2019
</metadata>
<g transform="translate(0.000000,1024.000000) scale(0.100000,-0.100000)"
fill="#00AEEF" stroke="none">
<path d="M2460 8920 c-486 -60 -888 -320 -1174 -762 -179 -276 -311 -678 -355
-1083 -20 -180 -22 -215 -22 -416 0 -292 24 -517 92 -854 76 -380 251 -894
411 -1210 159 -314 315 -585 337 -585 30 0 315 282 512 507 164 186 198 228
327 398 124 164 202 251 202 225 -1 -28 -70 -183 -129 -291 -89 -161 -255
-407 -377 -559 -60 -74 -180 -208 -268 -297 l-159 -163 43 -62 c76 -110 210
-289 302 -406 l90 -112 39 31 c69 54 342 329 450 454 115 132 257 308 391 485
48 63 106 133 128 155 l41 40 -30 -84 c-33 -90 -114 -249 -209 -408 -133 -223
-322 -462 -551 -695 l-124 -127 18 -28 c32 -49 159 -168 200 -189 27 -13 61
-19 105 -19 117 0 134 13 506 387 182 183 427 437 545 563 118 127 268 288
333 358 66 71 129 133 139 139 20 10 20 8 14 -73 -9 -127 -67 -360 -139 -559
-80 -220 -241 -540 -361 -719 -126 -188 -325 -422 -471 -554 -47 -43 -83 -83
-80 -88 6 -11 295 -242 429 -345 256 -195 594 -431 941 -657 118 -76 301 -185
410 -243 l103 -55 78 42 c226 122 567 336 908 569 209 143 516 372 747 557
l166 133 -172 173 c-315 314 -566 698 -725 1107 -55 141 -135 408 -144 480 -4
25 -11 82 -17 127 -7 45 -10 89 -8 98 3 16 114 -91 289 -280 322 -347 556
-592 789 -826 235 -236 284 -281 339 -307 135 -67 230 -37 367 113 l82 90
-126 130 c-287 295 -519 610 -665 900 -69 139 -122 264 -114 272 6 5 103 -108
157 -182 218 -301 524 -649 768 -872 89 -81 105 -93 119 -81 53 44 423 542
423 569 0 8 -48 59 -106 114 -104 98 -285 305 -413 474 -155 203 -334 510
-398 681 l-24 65 41 -40 c23 -22 99 -114 168 -205 255 -332 434 -534 681 -769
l164 -155 16 23 c47 70 214 367 286 511 160 317 264 586 369 960 78 276 148
678 166 962 12 177 0 480 -26 680 -38 300 -130 609 -255 858 -320 635 -927
996 -1564 930 -167 -17 -290 -50 -420 -113 -133 -65 -211 -123 -307 -227 -81
-86 -127 -158 -165 -252 -113 -279 44 -580 310 -596 153 -9 276 95 277 233 0
73 -15 114 -57 157 -82 84 -206 73 -270 -23 l-27 -41 -8 28 c-12 41 8 114 40
147 49 52 99 72 182 72 86 0 139 -22 203 -83 136 -131 153 -345 51 -623 -105
-286 -312 -504 -618 -650 -139 -66 -227 -89 -366 -96 -96 -4 -129 -2 -198 16
-206 51 -341 178 -413 386 -19 57 -24 90 -24 175 0 95 3 110 28 163 32 64 96
120 182 158 61 28 203 38 260 19 53 -17 111 -73 131 -126 9 -24 20 -44 24 -44
15 0 31 65 37 145 12 169 -65 317 -208 399 -56 32 -161 56 -245 56 l-61 0 -19
41 c-23 53 -87 116 -150 151 -119 64 -336 74 -539 24 -269 -66 -440 -76 -561
-32 -39 14 -77 26 -83 26 -18 0 -13 -64 10 -124 23 -63 87 -139 148 -176 22
-14 41 -29 41 -33 0 -5 -11 -27 -24 -50 -55 -95 -107 -277 -156 -541 -54 -294
-110 -427 -222 -531 -85 -79 -143 -98 -293 -99 -92 0 -140 5 -207 23 -233 60
-412 164 -573 333 -189 199 -271 368 -307 629 -42 315 188 550 428 438 84 -40
131 -132 107 -206 l-10 -28 -18 38 c-33 69 -118 108 -194 87 -122 -32 -180
-179 -119 -297 29 -57 102 -116 165 -133 130 -37 302 41 380 171 92 153 79
328 -39 537 -109 194 -380 380 -650 448 -117 29 -343 40 -478 24z m3541 -6087
c-70 -136 -325 -437 -589 -694 -98 -96 -204 -196 -235 -223 l-57 -48 -34 26
c-86 65 -541 534 -648 667 -115 143 -223 298 -214 307 12 11 103 -52 456 -318
74 -56 345 -239 407 -275 l31 -18 94 58 c126 78 283 188 533 375 194 145 265
193 273 185 2 -2 -6 -20 -17 -42z"/>
</g>
</svg>
